<svg xmlns="http://www.w3.org/2000/svg" width="960" height="740" viewBox="0 0 960.00001 740.00001"><path stroke="#000" stroke-width="2" stroke-linecap="round" stroke-linejoin="round" d="M721 0h239v740H721z"/><path d="M476 113l40 80m-40 0l40-80m-320 40h40m0-40h-40v80M316 93V53l20 20 20-40 20 40 20-20v40zm0 60l20 20m40 0l20-20m-40 80l-80-80V73l40 40h80l40-40v80l-80 80" fill="none" stroke="#000" stroke-width="2" stroke-linecap="round" stroke-linejoin="round"/><text style="line-height:125%;-inkscape-font-specification:'Dosis, Light';text-align:start" x="788" y="388.362" font-weight="300" font-size="35" font-family="Dosis" letter-spacing="0" word-spacing="0" fill="#fbff3d" transform="translate(0 -312.362)"><tspan x="788" y="388.362" style="line-height:125%;-inkscape-font-specification:'Dosis, Light';text-align:start">ABOUT</tspan><tspan x="788" y="432.112" style="line-height:125%;-inkscape-font-specification:'Dosis, Light';text-align:start">METHODS</tspan><tspan x="788" y="475.862" style="line-height:125%;-inkscape-font-specification:'Dosis, Light';text-align:start">PROJECTS</tspan><tspan x="788" y="519.612" style="line-height:125%;-inkscape-font-specification:'Dosis, Light';text-align:start">FEED</tspan></text><path d="M767 49v60l-20 20 20 20v60" fill="none" stroke="#f5c746" stroke-width="2" stroke-linecap="round" stroke-linejoin="round"/><path d="M162 420l20-20 20 20 20-20 20 20 20-20 20 20 20-20 20 20 20-20 20 20 20-20 20 20 20-20 20 20 20-20 20 20 20-20 20 20 20-20 20 20" fill="none" stroke="#000" stroke-width="2" stroke-linecap="round" stroke-linejoin="round"/><path d="M320 540h-80M320 560h-40M320 580h-20" stroke="#000" stroke-width="2" stroke-linecap="round" stroke-linejoin="round"/><text style="line-height:125%" x="562" y="608.362" font-size="40" font-family="sans-serif" letter-spacing="0" word-spacing="0" transform="translate(0 -312.362)"><tspan x="562" y="608.362">tags</tspan><tspan x="562" y="658.362">svg</tspan><tspan x="562" y="708.362">poymer</tspan><tspan x="562" y="758.362">js</tspan><tspan x="562" y="808.362">css3</tspan><tspan x="562" y="858.362">ux</tspan><tspan x="562" y="908.362">ui</tspan></text></svg>