<svg xmlns="http://www.w3.org/2000/svg" width="960" height="740" viewBox="0 0 960.00001 740.00001"><path d="M480 220V0m0 500v240m200-360h280m-680 0H0m600-40l40 80m-40 0l40-80m-320 40h40m0-40h-40v80m120-100v-40l20 20 20-40 20 40 20-20v40zm0 60l20 20m40 0l20-20m-40 80l-80-80v-80l40 40h80l40-40v80l-80 80" fill="none" stroke="#000" stroke-width="2" stroke-linecap="round" stroke-linejoin="round"/><text style="line-height:125%" x="120" y="412.362" font-size="40" font-family="sans-serif" letter-spacing="0" word-spacing="0" transform="translate(0 -312.362)"><tspan x="120" y="412.362" style="-inkscape-font-specification:'Dosis, Light';text-align:start;line-height:125%" font-family="Dosis" font-weight="300" writing-mode="lr">ABOUT</tspan><tspan x="120" y="462.362" style="-inkscape-font-specification:'Dosis, Light';text-align:start;line-height:125%" font-family="Dosis" font-weight="300" writing-mode="lr">METHODS</tspan><tspan x="120" y="512.362" style="-inkscape-font-specification:'Dosis, Light';text-align:start;line-height:125%" font-family="Dosis" font-weight="300" writing-mode="lr">PROJECTS</tspan><tspan x="120" y="562.362" style="-inkscape-font-specification:'Dosis, Light';text-align:start;line-height:125%" font-family="Dosis" font-weight="300" writing-mode="lr">FEED</tspan></text></svg>