<svg xmlns="http://www.w3.org/2000/svg" width="960" height="600" viewBox="0 0 960.00001 600.00001"><g transform="translate(0 -452.362)"><rect width="145.744" height="145.744" x="131.753" y="505.769" ry="0"/><path d="M440.006 731.607v-40l20 20h40l20-20v40l-40 40zM420.006 711.607h-20v40M400.006 731.607h20M540.006 711.607l20 40M540.006 751.607l20-40M400.006 771.607v40h20M460.006 811.607l20-20 20 20M540.006 771.607v40h20v-20h-20" fill="none" stroke="#fff" stroke-width="3" stroke-linecap="round" stroke-linejoin="round"/><path d="M459.996 728.584c-1.662 0-3 1.338-3 3s1.338 3 3 3 3-1.338 3-3-1.338-3-3-3zm40.322.2c-1.662 0-3 1.34-3 3 0 1.663 1.338 3 3 3s3-1.337 3-3c0-1.66-1.338-3-3-3zm-20.275 79.833c-1.662 0-3 1.338-3 3s1.338 3 3 3 3-1.338 3-3-1.338-3-3-3z" fill="#fff"/><g><path d="M164.625 580.64v-40l20 20h40l20-20v40l-40 40z" fill="none" stroke="#fff" stroke-width="3" stroke-linecap="round" stroke-linejoin="round"/><path d="M184.615 577.617c-1.662 0-3 1.338-3 3s1.338 3 3 3 3-1.338 3-3-1.338-3-3-3zm40.323.2c-1.662 0-3 1.34-3 3 0 1.663 1.338 3 3 3s3-1.337 3-3c0-1.66-1.338-3-3-3z" fill="#fff"/></g></g></svg>